<?xml version="1.0" standalone="no"?>
<!DOCTYPE svg PUBLIC "-//W3C//DTD SVG 1.1//EN" "http://www.w3.org/Graphics/SVG/1.1/DTD/svg11.dtd" >
<svg xmlns="http://www.w3.org/2000/svg">
<metadata></metadata>
<defs>
<font id="dubtronicregular" horiz-adv-x="1638" >
<font-face units-per-em="2048" ascent="1638" descent="-410" />
<missing-glyph horiz-adv-x="1032" />
<glyph horiz-adv-x="2048" />
<glyph horiz-adv-x="2048" />
<glyph unicode="&#xd;" horiz-adv-x="2048" />
<glyph unicode=" "  horiz-adv-x="1032" />
<glyph unicode="&#x09;" horiz-adv-x="1032" />
<glyph unicode="&#xa0;" horiz-adv-x="1032" />
<glyph unicode="!" horiz-adv-x="704" d="M102 604v830h500v-830h-500zM104 248q0 103 72.5 175.5t175.5 72.5t175.5 -72.5t72.5 -175.5t-72.5 -175.5t-175.5 -72.5t-175.5 72.5t-72.5 175.5z" />
<glyph unicode="&#x22;" horiz-adv-x="1110" d="M102 858v373q0 83 62 145q60 60 145 60q83 0 146 -60q59 -59 59 -145q0 -87 -59 -146q-17 -16 -105.5 -73t-167.5 -106zM596 858v373q0 84 61 145q60 60 146 60q82 0 145 -60q60 -60 60 -145q0 -86 -60 -146q-17 -16 -105 -73t-167 -106z" />
<glyph unicode="'" horiz-adv-x="616" d="M102 858v373q0 83 62 145q60 60 145 60q83 0 146 -60q59 -59 59 -145q0 -87 -59 -146q-17 -16 -105.5 -73t-167.5 -106z" />
<glyph unicode="," horiz-adv-x="626" d="M102 -168v373q0 83 62 145q60 60 145 60q83 0 146 -60q59 -59 59 -145q0 -87 -59 -146q-17 -16 -105.5 -73t-167.5 -106z" />
<glyph unicode="-" d="M102 467v500h1434v-500h-1434z" />
<glyph unicode="." horiz-adv-x="614" d="M102 205q0 85 60 145t145 60t145 -60t60 -145t-60 -145t-145 -60t-145 60t-60 145z" />
<glyph unicode="/" horiz-adv-x="1148" d="M43 0l436 1434h627l-436 -1434h-627z" />
<glyph unicode="0" horiz-adv-x="1574" d="M33 717q0 153 59.5 292.5t160.5 240.5t240.5 160.5t292.5 59.5t292.5 -59.5t240.5 -160.5t161 -240.5t60 -292.5t-60 -292.5t-161 -240.5t-240.5 -161t-292.5 -60t-292.5 60t-240.5 161t-160.5 240.5t-59.5 292.5z" />
<glyph unicode="1" horiz-adv-x="1124" d="M57 717l181 717h784v-1434h-784v717h-181z" />
<glyph unicode="2" horiz-adv-x="1568" d="M72 0v524q0 178 109 318.5t276 185.5v406h524q142 0 263 -70.5t191 -191.5t70 -263q0 -178 -108.5 -318t-276.5 -185v-406h-510h-538z" />
<glyph unicode="3" horiz-adv-x="1452" d="M102 0v401h232v72h-232v488h232v71h-232v402h807q189 0 323 -134t134 -323q0 -139 -80 -260q80 -121 80 -260q0 -189 -133 -322t-322 -135h-2h-2h-805z" />
<glyph unicode="4" horiz-adv-x="1433" d="M51 297l346 1137h934v-1434h-934v297h-346z" />
<glyph unicode="5" horiz-adv-x="1568" d="M72 909v525h1048v-406q167 -45 276 -185.5t109 -318.5q0 -106 -41.5 -203.5t-111.5 -167.5t-167.5 -111.5t-203.5 -41.5h-524v406q-168 45 -276.5 185t-108.5 318z" />
<glyph unicode="6" horiz-adv-x="1431" d="M63 580q0 165 91 309l358 545h723l-215 -328q153 -68 246.5 -210.5t93.5 -315.5q0 -157 -78 -290.5t-211.5 -211.5t-290.5 -78h-137q-157 0 -290.5 78t-211.5 211.5t-78 290.5z" />
<glyph unicode="7" horiz-adv-x="1538" d="M98 0l254 827h-254v607h1385l-436 -1434h-949z" />
<glyph unicode="8" horiz-adv-x="1456" d="M63 590q0 154 74 285t201 212q0 106 59.5 193.5t155.5 126.5q66 27 174 27t174 -27q96 -39 155.5 -126.5t59.5 -193.5q127 -81 201 -212t74 -285q0 -182 -101.5 -330t-265.5 -215q-106 -45 -297 -45t-297 45q-164 67 -265.5 215t-101.5 330z" />
<glyph unicode="9" horiz-adv-x="1433" d="M72 854q0 157 77.5 290.5t211 211.5t290.5 78h137q157 0 290.5 -78t211.5 -211.5t78 -290.5q0 -167 -90 -309l-358 -545h-723l215 328q-153 68 -246.5 210.5t-93.5 315.5z" />
<glyph unicode=":" horiz-adv-x="616" d="M102 205q0 85 60.5 145t146.5 60q85 0 145 -60t60 -145q0 -86 -60 -145.5t-145 -59.5q-86 0 -146.5 59.5t-60.5 145.5zM102 760q0 85 60.5 145t146.5 60q85 0 145 -60t60 -145q0 -86 -60 -145.5t-145 -59.5q-86 0 -146.5 59.5t-60.5 145.5z" />
<glyph unicode=";" horiz-adv-x="616" d="M102 -168v373q0 83 62 145q60 60 145 60q83 0 146 -60q59 -59 59 -145q0 -87 -59 -146q-17 -16 -105.5 -73t-167.5 -106zM102 760q0 85 60.5 145t146.5 60q85 0 145 -60t60 -145q0 -86 -60 -145.5t-145 -59.5q-86 0 -146.5 59.5t-60.5 145.5z" />
<glyph unicode="A" horiz-adv-x="1640" d="M33 0l786 1434l789 -1434h-1575z" />
<glyph unicode="B" horiz-adv-x="1513" d="M102 0v1434h682q105 0 174 -27q96 -39 156 -126.5t60 -193.5q127 -81 200.5 -212t73.5 -285q0 -182 -101.5 -331t-265.5 -216q-108 -43 -297 -43h-682z" />
<glyph unicode="C" horiz-adv-x="1605" d="M70 717q0 146 57 278.5t152.5 228.5t228.5 153t278 57h717v-680h-258v-74h258v-680h-717q-145 0 -278 57t-228.5 153t-152.5 228.5t-57 278.5z" />
<glyph unicode="D" horiz-adv-x="1607" d="M102 0v1434h717q145 0 278 -57t229 -153t153 -229t57 -278t-57 -278t-153 -229t-229 -153t-278 -57h-717z" />
<glyph unicode="E" horiz-adv-x="1587" d="M102 0v1434h1383v-553h-260v-72h260v-184h-260v-72h260v-553h-1383z" />
<glyph unicode="F" horiz-adv-x="1574" d="M102 0v1434h1381v-678v-2h-258v-74h260v-342h-260v-338h-1123z" />
<glyph unicode="G" horiz-adv-x="1605" d="M74 717q0 145 57 278t153 229t229 153t278 57h716v-680h-331v-244h73v170h258v-680h-716q-145 0 -278 57t-229 153t-153 229t-57 278z" />
<glyph unicode="H" horiz-adv-x="1585" d="M98 0v1434h654v-258h73v258h654l2 -1434h-656v258h-73v-258h-654z" />
<glyph unicode="I" horiz-adv-x="1267" d="M102 0v1434h1063v-1434h-1063z" />
<glyph unicode="J" horiz-adv-x="1566" d="M47 717h371v717h1063v-717q0 -145 -57 -278t-153 -229t-229 -153t-278 -57t-278 57t-229 153t-153 229t-57 278z" />
<glyph unicode="K" horiz-adv-x="1626" d="M102 0v1434h1434l-393 -717l393 -717h-1434z" />
<glyph unicode="L" horiz-adv-x="1605" d="M102 0v1434h1063v-717h371v-717h-1434z" />
<glyph unicode="M" d="M102 0v1434l717 -394l717 394v-1434h-1434z" />
<glyph unicode="N" d="M102 0v1434l717 -394v394h717v-1434h-1434z" />
<glyph unicode="O" horiz-adv-x="1574" d="M33 717q0 153 59.5 292.5t160.5 240.5t240.5 160.5t292.5 59.5t292.5 -59.5t240.5 -160.5t161 -240.5t60 -292.5t-60 -292.5t-161 -240.5t-240.5 -161t-292.5 -60t-292.5 60t-240.5 161t-160.5 240.5t-59.5 292.5z" />
<glyph unicode="P" horiz-adv-x="1538" d="M102 0v1434h793q157 0 290 -78t210.5 -211.5t77.5 -290.5q0 -173 -92.5 -314.5t-245.5 -211.5v-328h-1033z" />
<glyph unicode="Q" horiz-adv-x="1574" d="M39 717q0 153 60 292.5t161 239.5t240.5 159.5t292.5 59.5t292.5 -59.5t239.5 -159.5t159.5 -239.5t59.5 -292.5q0 -144 -51 -274.5t-143 -231.5l-183 182l-51 -51l182 -182q-102 -93 -232 -145t-273 -52q-153 0 -292.5 60t-240.5 161t-161 240.5t-60 292.5z" />
<glyph unicode="R" horiz-adv-x="1527" d="M102 0v1434h775q157 0 290 -78t210 -211.5t77 -290.5q0 -173 -93.5 -315.5t-246.5 -210.5l217 -328h-1229z" />
<glyph unicode="S" horiz-adv-x="1433" d="M94 591q-24 90 -24 180t24 180q48 180 182 315q101 100 230 152t266 52q136 0 264.5 -52t229.5 -152l-109 -109q133 -135 181 -315q24 -90 24 -180t-24 -180q-48 -180 -181 -314q-102 -100 -230 -152.5t-265 -52.5q-135 0 -264 52.5t-230 152.5l108 108 q-134 135 -182 315z" />
<glyph unicode="T" horiz-adv-x="1603" d="M86 717v717h1434v-717h-187v-717h-1061v717h-186z" />
<glyph unicode="U" horiz-adv-x="1605" d="M88 717v717h680v-258h74v258h680v-717q0 -145 -57 -278t-153 -229t-229 -153t-278 -57t-278 57t-229 153t-153 229t-57 278z" />
<glyph unicode="V" horiz-adv-x="1640" d="M33 1434h1575l-789 -1434z" />
<glyph unicode="W" d="M102 0v1434h1434v-1434l-717 393z" />
<glyph unicode="X" horiz-adv-x="1615" d="M90 0l324 717l-324 717h1434l-324 -717l324 -717h-1434z" />
<glyph unicode="Y" horiz-adv-x="1554" d="M59 1434h1434l-324 -717v-717h-786v717z" />
<glyph unicode="Z" horiz-adv-x="1628" d="M96 0l393 717h-393v717h1434l-393 -717h393v-717h-1434z" />
<glyph unicode="a" horiz-adv-x="1640" d="M33 0l786 1434l789 -1434h-1575z" />
<glyph unicode="b" horiz-adv-x="1513" d="M102 0v1434h682q105 0 174 -27q96 -39 156 -126.5t60 -193.5q127 -81 200.5 -212t73.5 -285q0 -182 -101.5 -331t-265.5 -216q-108 -43 -297 -43h-682z" />
<glyph unicode="c" horiz-adv-x="1605" d="M70 717q0 146 57 278.5t152.5 228.5t228.5 153t278 57h717v-680h-258v-74h258v-680h-717q-145 0 -278 57t-228.5 153t-152.5 228.5t-57 278.5z" />
<glyph unicode="d" horiz-adv-x="1607" d="M102 0v1434h717q145 0 278 -57t229 -153t153 -229t57 -278t-57 -278t-153 -229t-229 -153t-278 -57h-717z" />
<glyph unicode="e" horiz-adv-x="1587" d="M102 0v1434h1383v-553h-260v-72h260v-184h-260v-72h260v-553h-1383z" />
<glyph unicode="f" horiz-adv-x="1574" d="M102 0v1434h1381v-678v-2h-258v-74h260v-342h-260v-338h-1123z" />
<glyph unicode="g" horiz-adv-x="1605" d="M74 717q0 145 57 278t153 229t229 153t278 57h716v-680h-331v-244h73v170h258v-680h-716q-145 0 -278 57t-229 153t-153 229t-57 278z" />
<glyph unicode="h" horiz-adv-x="1585" d="M98 0v1434h654v-258h73v258h654l2 -1434h-656v258h-73v-258h-654z" />
<glyph unicode="i" horiz-adv-x="1267" d="M102 0v1434h1063v-1434h-1063z" />
<glyph unicode="j" horiz-adv-x="1566" d="M47 717h371v717h1063v-717q0 -145 -57 -278t-153 -229t-229 -153t-278 -57t-278 57t-229 153t-153 229t-57 278z" />
<glyph unicode="k" horiz-adv-x="1626" d="M102 0v1434h1434l-393 -717l393 -717h-1434z" />
<glyph unicode="l" horiz-adv-x="1605" d="M102 0v1434h1063v-717h371v-717h-1434z" />
<glyph unicode="m" d="M102 0v1434l717 -394l717 394v-1434h-1434z" />
<glyph unicode="n" d="M102 0v1434l717 -394v394h717v-1434h-1434z" />
<glyph unicode="o" horiz-adv-x="1574" d="M33 717q0 153 59.5 292.5t160.5 240.5t240.5 160.5t292.5 59.5t292.5 -59.5t240.5 -160.5t161 -240.5t60 -292.5t-60 -292.5t-161 -240.5t-240.5 -161t-292.5 -60t-292.5 60t-240.5 161t-160.5 240.5t-59.5 292.5z" />
<glyph unicode="p" horiz-adv-x="1538" d="M102 0v1434h793q157 0 290 -78t210.5 -211.5t77.5 -290.5q0 -173 -92.5 -314.5t-245.5 -211.5v-328h-1033z" />
<glyph unicode="q" horiz-adv-x="1574" d="M39 717q0 153 60 292.5t161 239.5t240.5 159.5t292.5 59.5t292.5 -59.5t239.5 -159.5t159.5 -239.5t59.5 -292.5q0 -144 -51 -274.5t-143 -231.5l-183 182l-51 -51l182 -182q-102 -93 -232 -145t-273 -52q-153 0 -292.5 60t-240.5 161t-161 240.5t-60 292.5z" />
<glyph unicode="r" horiz-adv-x="1527" d="M102 0v1434h775q157 0 290 -78t210 -211.5t77 -290.5q0 -173 -93.5 -315.5t-246.5 -210.5l217 -328h-1229z" />
<glyph unicode="s" horiz-adv-x="1560" d="M63 909q0 142 70.5 263t191.5 191.5t263 70.5h524v-406q167 -45 276 -185.5t109 -318.5q0 -106 -41.5 -203.5t-111.5 -167.5t-167.5 -111.5t-203.5 -41.5h-524v406q-168 45 -277 185t-109 318z" />
<glyph unicode="t" horiz-adv-x="1603" d="M86 717v717h1434v-717h-187v-717h-1061v717h-186z" />
<glyph unicode="u" horiz-adv-x="1605" d="M88 717v717h680v-258h74v258h680v-717q0 -145 -57 -278t-153 -229t-229 -153t-278 -57t-278 57t-229 153t-153 229t-57 278z" />
<glyph unicode="v" horiz-adv-x="1640" d="M33 1434h1575l-789 -1434z" />
<glyph unicode="w" d="M102 0v1434h1434v-1434l-717 393z" />
<glyph unicode="x" horiz-adv-x="1615" d="M90 0l324 717l-324 717h1434l-324 -717l324 -717h-1434z" />
<glyph unicode="y" horiz-adv-x="1554" d="M59 1434h1434l-324 -717v-717h-786v717z" />
<glyph unicode="z" horiz-adv-x="1628" d="M96 0l393 717h-393v717h1434l-393 -717h393v-717h-1434z" />
<glyph unicode="&#xad;" d="M102 467v500h1434v-500h-1434z" />
<glyph unicode="&#x2000;" horiz-adv-x="735" />
<glyph unicode="&#x2001;" horiz-adv-x="1470" />
<glyph unicode="&#x2002;" horiz-adv-x="735" />
<glyph unicode="&#x2003;" horiz-adv-x="1470" />
<glyph unicode="&#x2004;" horiz-adv-x="490" />
<glyph unicode="&#x2005;" horiz-adv-x="367" />
<glyph unicode="&#x2006;" horiz-adv-x="245" />
<glyph unicode="&#x2007;" horiz-adv-x="245" />
<glyph unicode="&#x2008;" horiz-adv-x="183" />
<glyph unicode="&#x2009;" horiz-adv-x="294" />
<glyph unicode="&#x200a;" horiz-adv-x="81" />
<glyph unicode="&#x2010;" d="M102 467v500h1434v-500h-1434z" />
<glyph unicode="&#x2011;" d="M102 467v500h1434v-500h-1434z" />
<glyph unicode="&#x2012;" d="M102 467v500h1434v-500h-1434z" />
<glyph unicode="&#x2013;" horiz-adv-x="1228" d="M102 467v500h1024v-500h-1024z" />
<glyph unicode="&#x2014;" horiz-adv-x="2252" d="M102 467v500h2048v-500h-2048z" />
<glyph unicode="&#x2018;" horiz-adv-x="657" d="M102 1229q0 80 62 145q60 60 145 60q83 0 146 -60q59 -62 59 -145v-373q-313 190 -350 227q-62 62 -62 146z" />
<glyph unicode="&#x2019;" horiz-adv-x="616" d="M102 858v373q0 83 62 145q60 60 145 60q83 0 146 -60q59 -59 59 -145q0 -87 -59 -146q-17 -16 -105.5 -73t-167.5 -106z" />
<glyph unicode="&#x201c;" horiz-adv-x="1132" d="M102 1229q0 80 62 145q60 60 145 60q83 0 146 -60q59 -62 59 -145v-373q-313 190 -350 227q-62 62 -62 146zM594 1229q0 81 61 145q60 60 146 60q82 0 145 -60q60 -63 60 -145v-373q-314 190 -351 227q-61 61 -61 146z" />
<glyph unicode="&#x201d;" horiz-adv-x="1110" d="M102 858v373q0 83 62 145q60 60 145 60q83 0 146 -60q59 -59 59 -145q0 -87 -59 -146q-17 -16 -105.5 -73t-167.5 -106zM596 858v373q0 84 61 145q60 60 146 60q82 0 145 -60q60 -60 60 -145q0 -86 -60 -146q-17 -16 -105 -73t-167 -106z" />
<glyph unicode="&#x201e;" horiz-adv-x="1705" />
<glyph unicode="&#x2022;" horiz-adv-x="802" d="M102 717q0 125 87 212t212 87t212 -87t87 -212t-87 -212t-212 -87t-212 87t-87 212z" />
<glyph unicode="&#x202f;" horiz-adv-x="294" />
<glyph unicode="&#x205f;" horiz-adv-x="367" />
<glyph unicode="&#x25fc;" horiz-adv-x="1433" d="M0 0v1434h1434v-1434h-1434z" />
</font>
</defs>
</svg>
